PathFileType	4	(X/Y/Z)	./resultDataOpenSim/trcMotMarkerGrf/sub06/qtm-13-06.trc
DataRate	CameraRate	NumFrames	NumMarkers	Units	OrigDataRate	OrigDataStartFrame	OrigNumFrames
250.000000	250.000000	14	24	m	250.000000	334	534
Frame#	Time	L.Toe.Tip			R.Toe.Tip			L.Ankle.Lat			R.Ankle.Lat			L.Ankle.Med			R.Ankle.Med			L.Heel			R.Heel			L.Knee.Lat			R.Knee.Lat			L.Knee.Med			R.Knee.Med			L.Thigh.Upper			R.Thigh.Upper			L.ASIS			R.ASIS			V.Sacral			L.Acromium			R.Acromium			C7			L.Elbow			R.Elbow			L.Wrist.Lat			R.Wrist.Lat
		X1	Y1	Z1	X2	Y2	Z2	X3	Y3	Z3	X4	Y4	Z4	X5	Y5	Z5	X6	Y6	Z6	X7	Y7	Z7	X8	Y8	Z8	X9	Y9	Z9	X10	Y10	Z10	X11	Y11	Z11	X12	Y12	Z12	X13	Y13	Z13	X14	Y14	Z14	X15	Y15	Z15	X16	Y16	Z16	X17	Y17	Z17	X18	Y18	Z18	X19	Y19	Z19	X20	Y20	Z20	X21	Y21	Z21	X22	Y22	Z22	X23	Y23	Z23	X24	Y24	Z24

334	1.332	0.66589642	0.11296003	-0.063907802	0.88825991	0.035741962	0.093272984	0.63660222	0.24076075	-0.089570096	0.75366005	0.061898238	0.12986654	0.66104867	0.24735017	-0.0079770077	0.7670675	0.08704683	0.043778484	0.57874072	0.2845994	-0.036508001	0.69488608	0.04368979	0.075897166	0.94056545	0.45783797	-0.1251047	0.83839527	0.4464025	0.15569633	0.94011981	0.45200751	0.004149825	0.78995188	0.43792536	0.032697631	0.76343676	0.81688168	-0.12602394	0.79195024	0.81987143	0.2175758	0.83557619	0.87117062	-0.086740303	0.87003048	0.87864584	0.15349896	0.66691744	0.94431913	0.061452824	0.78284808	1.3596703	-0.132407	0.80827318	1.3387221	0.22585934	0.71759604	1.3824043	0.052464648	0.723476	1.044948	-0.19983934	0.75357745	1.0208349	0.29759943	0.88994426	0.86021691	-0.20768517	0.9693572	0.8947152	0.30757572
335	1.336	0.68255278	0.11177285	-0.063625428	0.88830802	0.035742779	0.093330313	0.65026093	0.2387883	-0.089129619	0.75362451	0.062151967	0.12987797	0.67490713	0.24580701	-0.0076140344	0.76732522	0.087344564	0.043803175	0.59143672	0.28133856	-0.036154043	0.69484893	0.044088417	0.075840207	0.95072938	0.46126207	-0.12440467	0.83882597	0.4465949	0.15584313	0.94945606	0.45573988	0.0043750193	0.79052804	0.43846923	0.032515986	0.77013305	0.81880461	-0.12632487	0.79672526	0.8204222	0.21749812	0.84200041	0.87292526	-0.086363755	0.8754233	0.87945384	0.15352855	0.67234358	0.94542474	0.061461407	0.78792171	1.3606304	-0.13233226	0.81367362	1.3401968	0.22584215	0.72272661	1.3834447	0.052641235	0.72606128	1.0466988	-0.19968845	0.760814	1.022037	0.29840177	0.88966695	0.85966006	-0.20902318	0.97922896	0.89981391	0.30607582
336	1.34	0.69934302	0.11051991	-0.063337489	0.88836106	0.035739146	0.093399037	0.66402592	0.23663252	-0.088704291	0.75361898	0.062397297	0.12986818	0.68862173	0.24412352	-0.0072069657	0.76769033	0.087658424	0.043801368	0.60430077	0.27779788	-0.035860327	0.69484753	0.044491382	0.075766565	0.96062886	0.46459353	-0.12373869	0.83924767	0.4467665	0.15598553	0.9587081	0.45945639	0.0046663601	0.79137464	0.43901383	0.032443558	0.7770187	0.82062845	-0.12651877	0.8014038	0.82089638	0.2176247	0.84846574	0.8745449	-0.085989414	0.88065373	0.88012914	0.1536459	0.67779991	0.94643887	0.061303558	0.79297336	1.3615031	-0.13225955	0.81906254	1.3415694	0.22582553	0.72783737	1.3844372	0.0528199	0.72867023	1.0483736	-0.19952312	0.76795866	1.0231522	0.29924736	0.88939409	0.85910931	-0.21035704	0.98898169	0.90487199	0.30458628
337	1.344	0.71625699	0.10917267	-0.063058819	0.88842042	0.035728681	0.093474469	0.67791995	0.23431221	-0.08830328	0.75370558	0.062612821	0.12980158	0.70230357	0.2422889	-0.0067848228	0.76818375	0.087977656	0.043752146	0.61728232	0.27401872	-0.035583404	0.69500565	0.044900513	0.075616975	0.9703111	0.46783006	-0.12309235	0.83966455	0.44692172	0.1561252	0.96809113	0.46315297	0.0051553586	0.79245814	0.43953194	0.032506209	0.78411133	0.82234729	-0.12658527	0.80595873	0.82128925	0.21791033	0.85485439	0.87602305	-0.085609031	0.88568483	0.88064893	0.15386887	0.68340317	0.94735913	0.06101302	0.79799903	1.3622884	-0.13219315	0.82444053	1.3428398	0.22580884	0.73295653	1.3853663	0.052971689	0.7313032	1.0499701	-0.19934281	0.77505072	1.0241714	0.30011966	0.88914218	0.85854319	-0.21167565	0.99859914	0.90985922	0.30313037
338	1.348	0.73323124	0.1077087	-0.062794329	0.88849508	0.035715123	0.093548666	0.69193934	0.2318375	-0.087930349	0.75381512	0.062824501	0.12970421	0.71602312	0.24030614	-0.0063708737	0.76870602	0.088291832	0.043671521	0.63035849	0.27003286	-0.035304392	0.69529447	0.045308379	0.075411706	0.97987488	0.47096987	-0.12243586	0.84012605	0.44708844	0.1562776	0.97752944	0.46675939	0.0057986357	0.793629	0.44008646	0.032640899	0.79141933	0.82394775	-0.12651027	0.8104056	0.82162125	0.2182098	0.86116242	0.87736113	-0.085226818	0.89061389	0.8810426	0.15416625	0.68911016	0.94818608	0.060614618	0.80299503	1.3629903	-0.13213705	0.82980243	1.3440121	0.22579061	0.73810863	1.3861989	0.053073135	0.73396469	1.0514866	-0.19914928	0.78211381	1.0250784	0.30099159	0.88893029	0.85794095	-0.21296324	1.0080747	0.91477437	0.30170332
339	1.352	0.75030795	0.10617467	-0.062560654	0.888591	0.035706221	0.0936189	0.70605859	0.22920981	-0.087576761	0.75384442	0.0630746	0.12962001	0.72976429	0.23818628	-0.0059664558	0.76909583	0.088614989	0.043605066	0.64356027	0.26584701	-0.035038989	0.6955982	0.045699217	0.075187754	0.98940541	0.4740079	-0.12174101	0.84069513	0.44727824	0.15648113	0.98687296	0.47021093	0.0064820229	0.79477867	0.44071582	0.032730129	0.79876939	0.82541171	-0.12638666	0.81481977	0.82194564	0.21834947	0.8674479	0.87856932	-0.084857392	0.89556048	0.88135721	0.1544968	0.69480027	0.94891608	0.060175513	0.80795742	1.3636138	-0.13208994	0.83514288	1.3450882	0.2257686	0.74328756	1.3869163	0.053138592	0.73665755	1.0529257	-0.19894047	0.78917179	1.0258734	0.30184804	0.88875574	0.8573046	-0.21422103	1.0174148	0.91964639	0.30027476
340	1.356	0.76762499	0.10465615	-0.062383773	0.88870551	0.035702617	0.093688171	0.72027167	0.22642565	-0.087243134	0.7537837	0.063374276	0.12955057	0.74344727	0.23593132	-0.0055439377	0.76929822	0.08897201	0.043579534	0.65689106	0.26146104	-0.034787401	0.69584537	0.046068967	0.074936804	0.9989365	0.47693261	-0.12099405	0.8413813	0.44747364	0.15676513	0.99613008	0.47350295	0.0071404236	0.79592794	0.44133036	0.032670831	0.80579866	0.82673215	-0.12641141	0.81926779	0.82229966	0.21823522	0.87372565	0.87966175	-0.084505931	0.90053206	0.88159797	0.15485426	0.70043859	0.94953083	0.059821227	0.81288157	1.3641599	-0.13204584	0.84046045	1.346067	0.22574073	0.748467	1.3875285	0.053203889	0.73937879	1.054291	-0.1987109	0.79626154	1.0265796	0.3027011	0.88859218	0.85665665	-0.21546891	1.0266367	0.92450097	0.2988182
341	1.36	0.78523719	0.10318257	-0.062273582	0.88884147	0.035697766	0.093754102	0.73459989	0.2234865	-0.086943599	0.75369859	0.063701576	0.12946531	0.75703251	0.23352799	-0.0050760185	0.76940918	0.08937369	0.043586886	0.67031479	0.25688283	-0.034529313	0.69605874	0.046426401	0.074634059	1.0084699	0.47972838	-0.12019745	0.84211878	0.44765635	0.15709915	1.0054958	0.47666031	0.0077709313	0.79715239	0.44177862	0.03242266	0.81232543	0.82792588	-0.12667723	0.82373505	0.82265354	0.21793766	0.87991011	0.88065268	-0.084142539	0.90545636	0.8817377	0.15526178	0.70617594	0.95000583	0.059614445	0.81776562	1.3646226	-0.13200176	0.84575875	1.3469486	0.22570762	0.75363221	1.3880555	0.0532882	0.74212369	1.0555806	-0.19845847	0.80340822	1.027218	0.30357059	0.88842049	0.85601844	-0.21672638	1.0357571	0.92933191	0.29732958
342	1.364	0.80303163	0.1017019	-0.062208967	0.88901651	0.035691013	0.093805785	0.74904229	0.2204042	-0.086672677	0.75363722	0.064030047	0.12934768	0.77059605	0.23096331	-0.004577991	0.76960844	0.089812353	0.043601073	0.68381269	0.25213036	-0.034259409	0.69629025	0.046782595	0.074273845	1.0179815	0.48238802	-0.11936992	0.8428079	0.4478254	0.15738961	1.0152062	0.47969319	0.0083947876	0.79847387	0.44203401	0.032052682	0.81854436	0.82902472	-0.1270692	0.82815678	0.82293707	0.21762776	0.88584434	0.88154371	-0.083706667	0.91031314	0.88178011	0.15573597	0.71218226	0.95034278	0.059380015	0.82261641	1.364993	-0.13196472	0.85104277	1.3477361	0.22567094	0.75878736	1.3885057	0.053385211	0.74489549	1.0567872	-0.19818345	0.81060566	1.0277865	0.30445616	0.88824918	0.85539482	-0.21799869	1.044779	0.93410994	0.29581009
343	1.368	0.82082954	0.10015061	-0.062148546	0.88923509	0.03568714	0.093839075	0.76356676	0.21719295	-0.086401751	0.75360828	0.064342373	0.12920344	0.78425592	0.22824032	-0.0040943201	0.77008267	0.090266212	0.043578954	0.6973972	0.24722795	-0.033991762	0.69652558	0.047148922	0.073859484	1.027408	0.48492205	-0.11854014	0.84337722	0.44798417	0.15754058	1.0252513	0.48259122	0.0090242179	0.79986362	0.44225894	0.031729864	0.82474796	0.83004714	-0.12742346	0.8324944	0.82310862	0.21742451	0.89146332	0.88231126	-0.083168684	0.91518791	0.8817846	0.15626186	0.71829641	0.95059214	0.058811028	0.82744965	1.3652734	-0.13194296	0.85631568	1.3484324	0.22563194	0.76394541	1.3888715	0.053476824	0.74770648	1.0579073	-0.19788032	0.81783411	1.0282712	0.30534149	0.88809284	0.8547776	-0.21928009	1.0536941	0.93881007	0.29424583
344	1.372	0.8385362	0.098515795	-0.062065984	0.88944718	0.035678734	0.093869171	0.77816426	0.21386198	-0.086119971	0.75360854	0.064631865	0.12904167	0.79809523	0.22537279	-0.0036641864	0.77085087	0.090710466	0.04347243	0.71109213	0.24219744	-0.03373602	0.69668953	0.047542289	0.073407926	1.0366758	0.48734363	-0.11772399	0.84383483	0.44812745	0.15753482	1.0352225	0.48533557	0.0096516857	0.80133487	0.44261573	0.031597465	0.83107644	0.83097828	-0.12767682	0.8367528	0.82317302	0.21733871	0.89695728	0.88292489	-0.082590815	0.9201769	0.88180535	0.15679823	0.72407561	0.95082308	0.057872051	0.83228494	1.3654829	-0.13193555	0.86157827	1.3490385	0.22559207	0.76912054	1.3891379	0.053547027	0.75056645	1.0589457	-0.19754087	0.82508445	1.0286655	0.30621577	0.88795048	0.85415773	-0.22056479	1.0624968	0.9434219	0.29261815
345	1.376	0.85620729	0.096823394	-0.061972591	0.88956167	0.035649385	0.093923012	0.79286195	0.21041962	-0.085844504	0.75363078	0.06490638	0.12886789	0.81215527	0.22237486	-0.0033115709	0.77167352	0.091133661	0.043274275	0.7249262	0.23704367	-0.033488239	0.69675022	0.047980248	0.072964126	1.0457433	0.48965066	-0.11691547	0.84428634	0.4482528	0.15746494	1.044649	0.48791049	0.010262175	0.8029493	0.44308993	0.03165122	0.83754684	0.83178285	-0.12784561	0.84095668	0.82315293	0.21733413	0.90266809	0.88337884	-0.082093931	0.92526993	0.88182531	0.15729842	0.72935123	0.9510545	0.056908915	0.8371378	1.3656407	-0.1319382	0.86682858	1.3495542	0.2255507	0.77431853	1.3893036	0.053592007	0.75347292	1.0599082	-0.19716522	0.83235879	1.0289743	0.30708088	0.88781394	0.85353238	-0.22185198	1.0711875	0.9479472	0.29093693
346	1.38	0.87400276	0.095098936	-0.061898913	0.88952891	0.035604596	0.094019925	0.8076827	0.20687851	-0.08558954	0.75366095	0.065185989	0.12868881	0.82641013	0.21926241	-0.0030285472	0.77230228	0.091537059	0.043038697	0.73892862	0.23174536	-0.033250072	0.696779	0.048461508	0.07257101	1.054603	0.49183634	-0.11610393	0.84487028	0.44837785	0.15745827	1.0534336	0.49030902	0.010850203	0.80468623	0.44358383	0.031770447	0.84410883	0.83244073	-0.12796536	0.84514048	0.82307774	0.21739078	0.90880509	0.88369105	-0.081761796	0.93037802	0.88178603	0.15772525	0.7344106	0.95123854	0.056235206	0.84201221	1.3657473	-0.13194813	0.87206643	1.3499797	0.22550595	0.77952751	1.3893979	0.053620675	0.75641773	1.0607956	-0.19675844	0.83965157	1.0292081	0.30794583	0.88768496	0.8529009	-0.22314102	1.0797602	0.95239702	0.28925328
347	1.384	0.89204451	0.093367464	-0.061863231	0.88939889	0.035577169	0.094158437	0.82262926	0.20325356	-0.085354916	0.75368768	0.065487934	0.12851323	0.84078042	0.21605678	-0.0027780098	0.7727206	0.091924441	0.042834615	0.75309511	0.22627682	-0.033042629	0.69686747	0.048959705	0.072227429	1.0632795	0.49390299	-0.11528439	0.84564907	0.44852453	0.15756611	1.0617982	0.49253276	0.011420887	0.80641787	0.44407337	0.031829977	0.85070121	0.83296396	-0.12808158	0.84933847	0.82298026	0.2174992	0.91528244	0.88388229	-0.081577433	0.93544351	0.88166087	0.1580897	0.73957855	0.95131589	0.055835866	0.84690335	1.3657914	-0.13196146	0.87729751	1.3503172	0.22545842	0.7847246	1.3894649	0.053644858	0.75939873	1.0616042	-0.19631891	0.8469333	1.0293758	0.30881665	0.88758083	0.85225927	-0.22442688	1.0882056	0.95678201	0.28761387
